<?xml version="1.0" standalone="no"?>
<!DOCTYPE svg PUBLIC "-//W3C//DTD SVG 20010904//EN"
 "http://www.w3.org/TR/2001/REC-SVG-20010904/DTD/svg10.dtd">
<svg version="1.0" xmlns="http://www.w3.org/2000/svg"
 width="1144.000000pt" height="636.000000pt" viewBox="0 0 1144.000000 636.000000"
 preserveAspectRatio="xMidYMid meet">
<metadata>
Created by potrace 1.16, written by Peter Selinger 2001-2019
</metadata>
<g transform="translate(0.000000,636.000000) scale(0.100000,-0.100000)"
fill="#26396a" stroke="none">
<path d="M810 5890 l0 -330 895 0 895 0 0 -2140 0 -2140 -890 0 -890 0 0 235
0 235 -330 0 -331 0 3 -458 3 -457 38 -67 c33 -59 46 -72 105 -105 l67 -38
3091 0 3091 0 59 36 c69 43 137 133 147 195 4 21 7 283 7 582 l0 542 -335 0
-335 0 0 -350 0 -350 -695 0 -695 0 0 2470 0 2470 -1950 0 -1950 0 0 -330z
m3140 -5 l0 -325 230 0 230 0 0 -260 0 -260 -230 0 -230 0 0 -2205 0 -2205
-280 0 -280 0 0 2205 0 2205 -230 0 -230 0 0 260 0 260 230 0 230 0 0 325 0
325 280 0 280 0 0 -325z"/>
<path d="M7290 6026 c-879 -252 -1725 -502 -2117 -627 l-33 -11 0 -1709 0
-1709 330 0 330 0 0 550 0 550 755 0 755 0 0 -1324 c0 -1253 1 -1325 18 -1330
9 -3 152 -44 317 -91 165 -47 308 -88 318 -91 16 -5 17 142 17 2990 0 1648 -3
2996 -7 2995 -5 0 -312 -87 -683 -193z m20 -1491 l0 -805 -755 0 -755 0 2 582
3 581 750 223 c413 122 751 223 753 223 1 1 2 -361 2 -804z"/>
<path d="M8470 3225 c0 -2849 1 -2996 18 -2991 9 3 451 132 982 286 752 219
1544 452 1823 536 16 5 17 78 17 1340 l0 1334 -740 0 -740 0 0 -330 0 -330
410 0 410 0 -2 -757 -3 -756 -750 -222 -750 -222 -3 1059 c-1 583 -1 1533 0
2112 l3 1053 110 -34 c138 -42 1395 -413 1401 -413 2 0 4 157 4 349 0 324 -1
350 -17 355 -10 3 -495 143 -1078 311 -583 168 -1068 308 -1077 311 -17 5 -18
-142 -18 -2991z"/>
</g>
</svg>
