<svg xmlns="http://www.w3.org/2000/svg"
     width="26.6667in" height="15in"
     viewBox="0 0 1920 1080">
  <path id="Selection"
        fill="none" stroke="black" stroke-width="1"
        d="M 0.00,0.00
           C 0.00,0.00 1920.00,0.00 1920.00,0.00
             1920.00,0.00 1920.00,1080.00 1920.00,1080.00
             1920.00,1080.00 0.00,1080.00 0.00,1080.00
             0.00,1080.00 0.00,0.00 0.00,0.00 Z
           M 772.00,205.00
           C 772.00,205.00 568.00,205.00 568.00,205.00
             568.00,205.00 568.00,256.00 568.00,256.00
             568.00,256.00 711.00,256.00 711.00,256.00
             711.00,256.00 711.00,600.00 711.00,600.00
             711.00,600.00 600.00,600.00 600.00,600.00
             600.00,600.00 575.00,600.00 575.00,600.00
             575.00,600.00 567.60,598.40 567.60,598.40
             567.60,598.40 566.00,590.00 566.00,590.00
             566.00,590.00 566.00,562.00 566.00,562.00
             566.00,562.00 516.00,562.00 516.00,562.00
             516.00,562.00 516.00,626.00 516.00,626.00
             516.20,642.71 527.03,650.98 543.00,651.00
             543.00,651.00 772.00,651.00 772.00,651.00
             772.00,651.00 772.00,300.00 772.00,300.00
             772.00,300.00 748.00,300.00 748.00,300.00
             745.35,300.00 739.41,300.38 737.31,298.98
             734.95,297.40 735.05,294.52 735.00,292.00
             735.00,292.00 735.00,256.00 735.00,256.00
             735.00,256.00 772.00,256.00 772.00,256.00
             772.00,256.00 772.00,205.00 772.00,205.00 Z
           M 877.00,205.00
           C 877.00,205.00 819.00,205.00 819.00,205.00
             819.00,205.00 819.00,256.00 819.00,256.00
             819.00,256.00 855.00,256.00 855.00,256.00
             855.00,256.00 855.00,300.00 855.00,300.00
             855.00,300.00 819.00,300.00 819.00,300.00
             819.00,300.00 819.00,650.92 819.00,650.92
             819.00,650.92 990.00,650.92 990.00,650.92
             990.00,650.92 1008.00,650.92 1008.00,650.92
             1008.00,650.92 1022.00,650.92 1022.00,650.92
             1030.04,649.42 1037.95,642.68 1040.59,635.00
             1041.96,631.02 1041.99,627.14 1042.00,623.00
             1042.00,623.00 1042.00,544.00 1042.00,544.00
             1042.00,544.00 990.00,544.00 990.00,544.00
             990.00,544.00 990.00,600.00 990.00,600.00
             990.00,600.00 877.00,600.00 877.00,600.00
             877.00,600.00 877.00,205.00 877.00,205.00 Z
           M 1139.00,205.00
           C 1139.00,205.00 1086.00,220.59 1086.00,220.59
             1086.00,220.59 990.00,248.74 990.00,248.74
             990.00,248.74 936.00,264.57 936.00,264.57
             936.00,264.57 914.00,271.00 914.00,271.00
             914.00,271.00 914.00,543.00 914.00,543.00
             914.00,543.00 964.00,543.00 964.00,543.00
             964.00,543.00 964.00,455.00 964.00,455.00
             964.00,455.00 1087.00,455.00 1087.00,455.00
             1087.00,455.00 1087.00,667.00 1087.00,667.00
             1087.00,667.00 1139.00,682.00 1139.00,682.00
             1139.00,682.00 1139.00,205.00 1139.00,205.00 Z
           M 1353.00,309.00
           C 1353.00,309.00 1353.00,264.00 1353.00,264.00
             1353.00,264.00 1351.40,255.84 1351.40,255.84
             1351.40,255.84 1339.00,251.51 1339.00,251.51
             1339.00,251.51 1313.00,243.80 1313.00,243.80
             1313.00,243.80 1261.00,228.59 1261.00,228.59
             1261.00,228.59 1227.00,219.10 1227.00,219.10
             1227.00,219.10 1180.00,206.00 1180.00,206.00
             1180.00,206.00 1180.00,681.00 1180.00,681.00
             1180.00,681.00 1241.00,663.56 1241.00,663.56
             1241.00,663.56 1302.00,645.96 1302.00,645.96
             1302.00,645.96 1353.00,630.85 1353.00,630.85
             1353.00,630.85 1389.00,620.09 1389.00,620.09
             1389.00,620.09 1403.40,615.16 1403.40,615.16
             1403.40,615.16 1405.00,607.00 1405.00,607.00
             1405.00,607.00 1405.00,404.00 1405.00,404.00
             1405.00,404.00 1288.00,404.00 1288.00,404.00
             1288.00,404.00 1288.00,455.00 1288.00,455.00
             1288.00,455.00 1354.00,455.00 1354.00,455.00
             1354.00,455.00 1354.00,568.00 1354.00,568.00
             1354.00,568.00 1352.98,575.70 1352.98,575.70
             1352.98,575.70 1346.00,579.59 1346.00,579.59
             1346.00,579.59 1327.00,585.36 1327.00,585.36
             1327.00,585.36 1268.00,602.57 1268.00,602.57
             1268.00,602.57 1231.00,613.00 1231.00,613.00
             1231.00,613.00 1231.00,382.00 1231.00,382.00
             1231.00,382.00 1231.00,310.00 1231.00,310.00
             1231.00,310.00 1232.00,273.00 1232.00,273.00
             1232.00,273.00 1300.00,293.57 1300.00,293.57
             1300.00,293.57 1330.00,302.52 1330.00,302.52
             1330.00,302.52 1353.00,309.00 1353.00,309.00 Z
           M 964.00,404.00
           C 964.00,404.00 964.00,318.00 964.00,318.00
             964.00,318.00 965.02,310.56 965.02,310.56
             965.02,310.56 972.00,307.19 972.00,307.19
             972.00,307.19 992.00,301.15 992.00,301.15
             992.00,301.15 1063.00,280.26 1063.00,280.26
             1063.00,280.26 1087.00,273.00 1087.00,273.00
             1087.00,273.00 1087.00,404.00 1087.00,404.00
             1087.00,404.00 964.00,404.00 964.00,404.00 Z" />
</svg>